<svg width="1200" height="700" viewBox="0 0 1200 700" xmlns="http://www.w3.org/2000/svg" role="img" aria-label="Map-inspired red grid">
  <defs>
    <linearGradient id="g3" x1="0%" y1="0%" x2="0%" y2="100%">
      <stop offset="0%" stop-color="#1a0202"/>
      <stop offset="50%" stop-color="#350404"/>
      <stop offset="100%" stop-color="#0a0a0c"/>
    </linearGradient>
  </defs>
  <rect width="1200" height="700" fill="url(#g3)" />
  <g stroke="#ff6b6b" stroke-width="1" opacity="0.3">
    <path d="M80 120 L1140 120" />
    <path d="M80 220 L1140 220" />
    <path d="M80 320 L1140 320" />
    <path d="M80 420 L1140 420" />
    <path d="M80 520 L1140 520" />
  </g>
  <g stroke="#772222" stroke-width="1" opacity="0.35">
    <path d="M200 60 L200 640" />
    <path d="M420 60 L420 640" />
    <path d="M640 60 L640 640" />
    <path d="M860 60 L860 640" />
    <path d="M1080 60 L1080 640" />
  </g>
  <g fill="#ff9999" opacity="0.45">
    <circle cx="240" cy="240" r="10"/>
    <circle cx="360" cy="480" r="8"/>
    <circle cx="600" cy="300" r="12"/>
    <circle cx="920" cy="360" r="9"/>
    <circle cx="760" cy="180" r="7"/>
  </g>
</svg>
